<svg width="200" height="200" viewBox="0 0 200 200" fill="none" xmlns="http://www.w3.org/2000/svg">
<g clip-path="url(#clip0_1302_16)">
<path d="M35.4167 1.61203e-05H164.583C169.236 -0.00448106 173.843 0.932018 178.142 2.75592C182.441 4.57981 186.347 7.25531 189.636 10.6293C192.926 14.0032 195.535 18.0094 197.313 22.4186C199.091 26.8277 200.004 31.5533 200 36.3248V163.675C200.004 168.447 199.091 173.172 197.313 177.581C195.535 181.991 192.926 185.997 189.636 189.371C186.347 192.745 182.441 195.42 178.142 197.244C173.843 199.068 169.236 200.004 164.583 200H35.4167C30.7645 200.004 26.157 199.068 21.8581 197.244C17.5592 195.42 13.6532 192.745 10.3635 189.371C7.07392 185.997 4.46532 181.991 2.68702 177.581C0.908717 173.172 -0.00436903 168.447 1.57173e-05 163.675V36.3248C-0.00436903 31.5533 0.908717 26.8277 2.68702 22.4186C4.46532 18.0094 7.07392 14.0032 10.3635 10.6293C13.6532 7.25531 17.5592 4.57981 21.8581 2.75592C26.157 0.932018 30.7645 -0.00448106 35.4167 1.61203e-05Z" fill="#000B1D"/>
<g clip-path="url(#clip1_1302_16)">
<path d="M100 113.224C107.679 113.224 113.904 107.08 113.904 99.5C113.904 91.9202 107.679 85.7755 100 85.7755C92.3208 85.7755 86.0956 91.9202 86.0956 99.5C86.0956 107.08 92.3208 113.224 100 113.224Z" fill="#61DAFB"/>
<path fill-rule="evenodd" clip-rule="evenodd" d="M33.4322 90.9363C30.0586 93.9424 28.6413 96.8417 28.6413 99.5C28.6413 102.158 30.0586 105.058 33.4322 108.064C36.8054 111.069 41.8691 113.923 48.403 116.386C61.4482 121.302 79.6896 124.41 100 124.41C120.31 124.41 138.552 121.302 151.597 116.386C158.131 113.923 163.195 111.069 166.568 108.064C169.941 105.058 171.359 102.158 171.359 99.5C171.359 96.8417 169.941 93.9424 166.568 90.9363C163.195 87.9306 158.131 85.0767 151.597 82.6143C138.552 77.6978 120.31 74.5896 100 74.5896C79.6896 74.5896 61.4482 77.6978 48.403 82.6143C41.8691 85.0767 36.8054 87.9306 33.4322 90.9363ZM46.0844 76.6204C60.0422 71.36 79.1051 68.1737 100 68.1737C120.895 68.1737 139.958 71.36 153.916 76.6204C160.883 79.2464 166.746 82.4515 170.923 86.1739C175.101 89.8959 177.859 94.3937 177.859 99.5C177.859 104.606 175.101 109.104 170.923 112.826C166.746 116.549 160.883 119.754 153.916 122.38C139.958 127.64 120.895 130.826 100 130.826C79.1051 130.826 60.0422 127.64 46.0844 122.38C39.1167 119.754 33.2542 116.549 29.0767 112.826C24.8995 109.104 22.1413 104.606 22.1413 99.5C22.1413 94.3937 24.8995 89.8959 29.0767 86.1739C33.2542 82.4515 39.1167 79.2464 46.0844 76.6204Z" fill="#61DAFB"/>
<path fill-rule="evenodd" clip-rule="evenodd" d="M74.2297 38.3146C69.9055 36.9338 66.6531 37.1719 64.3207 38.5011C61.9883 39.8303 60.1531 42.4915 59.2025 46.8783C58.252 51.2647 58.2799 57.0202 59.3863 63.8367C61.5953 77.4463 67.989 94.5935 78.1442 111.955C88.2993 129.317 100.147 143.356 110.983 152.049C116.411 156.403 121.447 159.305 125.77 160.685C130.095 162.066 133.347 161.828 135.679 160.499C138.012 159.17 139.847 156.509 140.798 152.122C141.748 147.735 141.72 141.98 140.614 135.163C138.405 121.554 132.011 104.406 121.856 87.0448C111.701 69.6831 99.8529 55.644 89.0167 46.9509C83.5893 42.5969 78.5535 39.6953 74.2297 38.3146ZM93.1163 41.972C104.71 51.2732 117.038 65.9754 127.485 83.8368C137.932 101.698 144.668 119.587 147.032 134.148C148.212 141.417 148.331 148.031 147.154 153.464C145.977 158.895 143.409 163.502 138.929 166.055C134.449 168.608 129.124 168.5 123.77 166.79C118.415 165.08 112.672 161.671 106.884 157.028C95.2895 147.727 82.9624 133.025 72.515 115.163C62.0675 97.3018 55.3317 79.4132 52.9681 64.8516C51.7883 57.5825 51.6691 50.9686 52.8463 45.5364C54.0233 40.1046 56.5905 35.4979 61.0707 32.9448C65.5508 30.3916 70.8762 30.5005 76.2304 32.2102C81.5851 33.9201 87.3284 37.3289 93.1163 41.972Z" fill="#61DAFB"/>
<path fill-rule="evenodd" clip-rule="evenodd" d="M140.798 46.8783C139.847 42.4914 138.012 39.8303 135.679 38.5011C133.347 37.1719 130.095 36.9337 125.77 38.3146C121.447 39.6952 116.411 42.5969 110.983 46.9509C100.147 55.644 88.2994 69.683 78.1442 87.0447C67.989 104.406 61.5953 121.554 59.3863 135.163C58.2799 141.98 58.252 147.735 59.2025 152.122C60.1531 156.508 61.9883 159.17 64.3207 160.499C66.6531 161.828 69.9055 162.066 74.2297 160.685C78.5535 159.305 83.5893 156.403 89.0167 152.049C99.8529 143.356 111.701 129.317 121.856 111.955C132.011 94.5934 138.405 77.4462 140.614 63.8366C141.72 57.0202 141.748 51.2647 140.798 46.8783ZM147.032 64.8516C144.668 79.4132 137.932 97.3017 127.485 115.163C117.038 133.024 104.71 147.727 93.1163 157.028C87.3285 161.671 81.5851 165.08 76.2304 166.79C70.8762 168.499 65.5508 168.608 61.0707 166.055C56.5905 163.502 54.0233 158.895 52.8463 153.464C51.6691 148.031 51.7883 141.417 52.9682 134.148C55.3317 119.587 62.0676 101.698 72.515 83.8368C82.9625 65.9754 95.2895 51.2732 106.884 41.972C112.672 37.3288 118.415 33.92 123.77 32.2101C129.124 30.5004 134.449 30.3916 138.929 32.9447C143.41 35.4979 145.977 40.1046 147.154 45.5363C148.331 50.9685 148.212 57.5825 147.032 64.8516Z" fill="#61DAFB"/>
</g>
</g>
<defs>
<clipPath id="clip0_1302_16">
<rect width="200" height="200" fill="white"/>
</clipPath>
<clipPath id="clip1_1302_16">
<rect width="156" height="137" fill="white" transform="translate(22 31)"/>
</clipPath>
</defs>
</svg>
