<svg width="200" height="200" viewBox="0 0 200 200" fill="none" xmlns="http://www.w3.org/2000/svg">
<path d="M35.4167 1.61203e-05H164.583C169.236 -0.00448106 173.843 0.932018 178.142 2.75592C182.441 4.57981 186.347 7.25531 189.636 10.6293C192.926 14.0032 195.535 18.0094 197.313 22.4186C199.091 26.8277 200.004 31.5533 200 36.3248V163.675C200.004 168.447 199.091 173.172 197.313 177.581C195.535 181.991 192.926 185.997 189.636 189.371C186.347 192.745 182.441 195.42 178.142 197.244C173.843 199.068 169.236 200.004 164.583 200H35.4167C30.7645 200.004 26.157 199.068 21.8581 197.244C17.5592 195.42 13.6532 192.745 10.3635 189.371C7.07392 185.997 4.46532 181.991 2.68702 177.581C0.908717 173.172 -0.00436903 168.447 1.57173e-05 163.675V36.3248C-0.00436903 31.5533 0.908717 26.8277 2.68702 22.4186C4.46532 18.0094 7.07392 14.0032 10.3635 10.6293C13.6532 7.25531 17.5592 4.57981 21.8581 2.75592C26.157 0.932018 30.7645 -0.00448106 35.4167 1.61203e-05V1.61203e-05Z" fill="#000B1D"/>
<path fill-rule="evenodd" clip-rule="evenodd" d="M65.9258 86.125C70.4485 67.3757 81.7586 58 99.8516 58C126.992 58 130.385 79.0938 143.955 82.6094C153.003 84.9539 160.918 81.4383 167.703 72.0625C163.18 90.8117 151.87 100.188 133.777 100.188C106.637 100.188 103.244 79.0938 89.6738 75.5781C80.6262 73.2337 72.7109 76.7493 65.9258 86.125ZM32 128.312C36.5228 109.563 47.8327 100.188 65.9258 100.188C93.0664 100.188 96.459 121.281 110.029 124.797C119.077 127.141 126.992 123.626 133.777 114.25C129.255 132.999 117.945 142.375 99.8516 142.375C72.7109 142.375 69.3184 121.281 55.748 117.766C46.7005 115.421 38.7852 118.937 32 128.312Z" fill="url(#paint0_linear_1303_21)"/>
<defs>
<linearGradient id="paint0_linear_1303_21" x1="68.5645" y1="58" x2="129.451" y2="143.08" gradientUnits="userSpaceOnUse">
<stop stop-color="#32B1C1"/>
<stop offset="1" stop-color="#14C6B7"/>
</linearGradient>
</defs>
</svg>
